<?xml version="1.0" encoding="iso-8859-1"?>
<!-- Generator: Adobe Illustrator 19.0.0, SVG Export Plug-In . SVG Version: 6.00 Build 0)  -->
<svg version="1.1" id="Layer_1" xmlns="http://www.w3.org/2000/svg" xmlns:xlink="http://www.w3.org/1999/xlink" x="0px" y="0px"
	 viewBox="0 0 492.308 492.308" style="enable-background:new 0 0 492.308 492.308;" xml:space="preserve">
<g>
	<g>
		<path d="M411.26,319.257c-28.925,0-54.292,15.279-68.64,38.142l-184.537-86.15c2.584-7.91,4.023-16.332,4.023-25.094
			c0-8.451-1.309-16.599-3.719-24.264l184.363-86.767c14.372,22.746,39.674,37.93,68.51,37.93c44.692,0,81.048-36.361,81.048-81.053
			S455.952,10.95,411.26,10.95s-81.058,36.361-81.058,81.053c0,8.85,1.476,17.35,4.111,25.33L150.15,204.005
			c-14.257-23.282-39.855-38.901-69.097-38.901C36.361,165.103,0,201.464,0,246.156c0,44.692,36.361,81.053,81.053,81.053
			c28.926,0,54.291-15.28,68.637-38.144l184.537,86.15c-2.585,7.91-4.025,16.332-4.025,25.095c0,44.692,36.365,81.048,81.058,81.048
			s81.048-36.356,81.048-81.048S455.952,319.257,411.26,319.257z M411.26,30.642c33.827,0,61.356,27.524,61.356,61.361
			s-27.529,61.361-61.356,61.361c-33.837,0-61.365-27.524-61.365-61.361S377.423,30.642,411.26,30.642z M81.053,307.517
			c-33.837,0-61.361-27.524-61.361-61.361c0-33.837,27.524-61.361,61.361-61.361s61.361,27.524,61.361,61.361
			C142.413,279.993,114.889,307.517,81.053,307.517z M411.26,461.666c-33.837,0-61.365-27.524-61.365-61.356
			c0-33.837,27.529-61.361,61.365-61.361c33.827,0,61.356,27.524,61.356,61.361C472.615,434.142,445.087,461.666,411.26,461.666z"/>
	</g>
</g>
<g>
</g>
<g>
</g>
<g>
</g>
<g>
</g>
<g>
</g>
<g>
</g>
<g>
</g>
<g>
</g>
<g>
</g>
<g>
</g>
<g>
</g>
<g>
</g>
<g>
</g>
<g>
</g>
<g>
</g>
</svg>
